<?xml version="1.0" encoding="iso-8859-1"?>
<!-- Generator: Adobe Illustrator 17.1.0, SVG Export Plug-In . SVG Version: 6.00 Build 0)  -->
<!DOCTYPE svg PUBLIC "-//W3C//DTD SVG 1.1//EN" "http://www.w3.org/Graphics/SVG/1.1/DTD/svg11.dtd">
<svg version="1.1" id="Capa_1" xmlns="http://www.w3.org/2000/svg" xmlns:xlink="http://www.w3.org/1999/xlink" x="0px" y="0px"
	 viewBox="0 0 452.232 452.232" style="enable-background:new 0 0 452.232 452.232;" xml:space="preserve">
<g>
	<path d="M131.991,242.945c24.102-0.036,43.722-19.685,43.722-43.801v-12.852c0-1.345-0.065-2.704-0.194-4.066h-6.018
		c-10.394,0-14.004-9.89-15.737-16.05c-9.835,4.651-34.336,15.539-65.314,16.032c-0.13,1.369-0.195,2.733-0.195,4.084v12.852
		C88.254,223.261,107.874,242.909,131.991,242.945z"/>
	<path d="M432.232,72.765H20c-11.028,0-20,8.972-20,20v266.703c0,11.028,8.972,20,20,20h316.635c9.654,0,22.293-5.606,28.774-12.764
		l75.464-83.357c6.37-7.037,11.359-19.984,11.359-29.476V92.765C452.232,81.736,443.261,72.765,432.232,72.765z M246.298,148.935
		h151.558v28.183H246.298V148.935z M198.427,293.771l-0.078,30.85H65.617l-0.078-30.85v-24.455
		c0-12.531,13.515-17.286,24.374-21.106c2.538-0.894,5.429-1.91,7.726-2.937c-0.448-0.494-0.903-0.993-1.365-1.5
		c-9.407-10.317-20.065-22.009-20.135-42.636l-1.265-16.165c-2.828-36.393,15.334-41.988,42.825-50.458
		c4.045-1.246,8.228-2.535,12.711-4.021c5.77-1.911,11.436-2.881,16.841-2.881c11.476,0,21.512,4.292,29.025,12.413
		c9.702,10.485,14.253,26.447,12.815,44.945c-0.297,3.822-1.142,14.6-1.264,16.166c-0.069,20.627-10.728,32.318-20.135,42.636
		c-0.462,0.507-0.917,1.006-1.365,1.5c2.297,1.026,5.188,2.043,7.726,2.937c10.858,3.82,24.373,8.575,24.373,21.106V293.771z
		 M315.549,256.193h-69.251V228.01h69.251V256.193z M420.301,260.714l-79.363,87.919c-3.685,4.083-6.703,2.923-6.706-2.577
		l-0.043-82.818c-0.003-5.5,4.495-9.997,9.995-9.994l72.818,0.042C422.501,253.289,423.986,256.631,420.301,260.714z"/>
	<polygon points="131.983,295.949 166.022,259.846 97.944,259.846 	"/>
</g>
<g>
</g>
<g>
</g>
<g>
</g>
<g>
</g>
<g>
</g>
<g>
</g>
<g>
</g>
<g>
</g>
<g>
</g>
<g>
</g>
<g>
</g>
<g>
</g>
<g>
</g>
<g>
</g>
<g>
</g>
</svg>
