<?xml version="1.0" encoding="iso-8859-1"?>
<!-- Generator: Adobe Illustrator 17.1.0, SVG Export Plug-In . SVG Version: 6.00 Build 0)  -->
<!DOCTYPE svg PUBLIC "-//W3C//DTD SVG 1.1//EN" "http://www.w3.org/Graphics/SVG/1.1/DTD/svg11.dtd">
<svg version="1.1" id="Capa_1" xmlns="http://www.w3.org/2000/svg" xmlns:xlink="http://www.w3.org/1999/xlink" x="0px" y="0px"
	 viewBox="0 0 441.031 441.031" style="enable-background:new 0 0 441.031 441.031;" xml:space="preserve">
<g>
	<path d="M397.864,277.285h-52.897c-8.597,0-15.591,6.994-15.591,15.591v42.419c0,8.598,6.994,15.592,15.591,15.592h52.897
		c8.597,0,15.591-6.994,15.591-15.592v-42.419C413.455,284.279,406.461,277.285,397.864,277.285z M382.146,314.086
		c0,7.641-6.216,13.856-13.856,13.856s-13.856-6.216-13.856-13.856s6.216-13.856,13.856-13.856S382.146,306.445,382.146,314.086z"/>
	<path d="M310.725,357.947v-81.55c0.055-0.765,0.093-1.534,0.093-2.313v-5.257c0.694-5.733,5.581-10.193,11.498-10.193h66.223
		v-47.91c0-13.004-10.579-23.583-23.583-23.583h-54.138v-26.58h54.139c7.161,0,14.185,1.282,20.875,3.812l2.707,1.023v-26.532
		c0-13.004-10.579-23.583-23.583-23.583h-54.138V32c0-17.645-14.355-32-32-32H106.135c-17.645,0-32,14.355-32,32v83.28H51.159
		c-13.004,0-23.583,10.579-23.583,23.583v26.532l2.707-1.023c6.69-2.529,13.714-3.812,20.876-3.812h22.976v26.58H51.159
		c-13.004,0-23.583,10.579-23.583,23.583v206.725c0,13.004,10.579,23.583,23.583,23.583h313.796
		c13.004,0,23.583-10.579,23.583-23.583v-47.91h-66.223C315.924,369.538,310.725,364.339,310.725,357.947z M276.817,187.141h-62.652
		V72.298h-28v114.843h-9.726l0.374-0.523l-24.001-33.571l24-33.575l-29.819-41.717l-22.779,16.283l18.181,25.434l-24,33.577
		l23.999,33.569l-0.374,0.523h-33.885V34h168.683V187.141z"/>
	<rect x="239.454" y="138.187" width="22.426" height="29.711"/>
	<rect x="239.454" y="84.359" width="22.426" height="29.712"/>
</g>
<g>
</g>
<g>
</g>
<g>
</g>
<g>
</g>
<g>
</g>
<g>
</g>
<g>
</g>
<g>
</g>
<g>
</g>
<g>
</g>
<g>
</g>
<g>
</g>
<g>
</g>
<g>
</g>
<g>
</g>
</svg>
