<?xml version="1.0" encoding="iso-8859-1"?>
<!-- Generator: Adobe Illustrator 17.1.0, SVG Export Plug-In . SVG Version: 6.00 Build 0)  -->
<!DOCTYPE svg PUBLIC "-//W3C//DTD SVG 1.1//EN" "http://www.w3.org/Graphics/SVG/1.1/DTD/svg11.dtd">
<svg version="1.1" id="Capa_1" xmlns="http://www.w3.org/2000/svg" xmlns:xlink="http://www.w3.org/1999/xlink" x="0px" y="0px"
	 viewBox="0 0 442.232 442.232" style="enable-background:new 0 0 442.232 442.232;" xml:space="preserve">
<g>
	<rect x="101.533" y="141.549" width="27.517" height="27.517"/>
	<rect x="101.533" y="224.1" width="27.517" height="27.517"/>
	<rect x="101.533" y="182.823" width="27.517" height="27.52"/>
	<rect x="101.533" y="265.377" width="27.517" height="27.517"/>
	<rect x="74.016" y="306.654" width="41.277" height="27.517"/>
	<rect x="60.256" y="141.549" width="27.517" height="27.517"/>
	<rect x="60.256" y="224.1" width="27.517" height="27.517"/>
	<rect x="60.256" y="265.377" width="27.517" height="27.517"/>
	<rect x="156.567" y="224.1" width="27.52" height="27.517"/>
	<rect x="60.256" y="182.823" width="27.517" height="27.52"/>
	<rect x="156.567" y="265.377" width="27.52" height="27.517"/>
	<path d="M422.232,52.764H20c-11.028,0-20,8.972-20,20v296.704c0,11.028,8.972,20,20,20h402.232c11.028,0,20-8.972,20-20V72.764
		C442.232,61.736,433.26,52.764,422.232,52.764z M252.881,347.93H32.739v-13.76h13.76V127.789h96.311v82.554h96.311v123.828h13.76
		V347.93z M409.494,347.93h-114v-28.743h114V347.93z M409.494,272.969h-114v-28.743h114V272.969z M409.494,198.007h-114v-28.743h114
		V198.007z M409.494,123.045h-172V94.302h172V123.045z"/>
	<rect x="197.844" y="224.1" width="27.517" height="27.517"/>
	<rect x="197.844" y="265.377" width="27.517" height="27.517"/>
	<rect x="170.327" y="306.654" width="41.277" height="27.517"/>
</g>
<g>
</g>
<g>
</g>
<g>
</g>
<g>
</g>
<g>
</g>
<g>
</g>
<g>
</g>
<g>
</g>
<g>
</g>
<g>
</g>
<g>
</g>
<g>
</g>
<g>
</g>
<g>
</g>
<g>
</g>
</svg>
