<?xml version="1.0" encoding="iso-8859-1"?>
<!-- Generator: Adobe Illustrator 17.1.0, SVG Export Plug-In . SVG Version: 6.00 Build 0)  -->
<!DOCTYPE svg PUBLIC "-//W3C//DTD SVG 1.1//EN" "http://www.w3.org/Graphics/SVG/1.1/DTD/svg11.dtd">
<svg version="1.1" id="Capa_1" xmlns="http://www.w3.org/2000/svg" xmlns:xlink="http://www.w3.org/1999/xlink" x="0px" y="0px"
	 viewBox="0 0 435.562 435.562" style="enable-background:new 0 0 435.562 435.562;" xml:space="preserve">
<g>
	<path d="M207.11,211.061c-1.859,0-2.59-1.182-6.65-7.742c-1.258-2.034-3.132-5.062-4.413-6.861
		c-1.272,1.749-3.125,4.665-4.371,6.627c-4.344,6.84-5.118,7.975-6.967,7.975h-6.986c-0.251,1.833-0.378,3.667-0.378,5.476v11.307
		c0,22.296,18.139,40.436,40.436,40.436c22.296,0,40.436-18.14,40.436-40.436v-11.307c0-1.809-0.127-3.643-0.378-5.476H207.11z"/>
	<path d="M380.27,44.436H266.737V10c0-5.514-4.486-10-10-10h-77.913c-5.514,0-10,4.486-10,10v34.436H55.291
		c-11.028,0-20,8.972-20,20v351.125c0,11.028,8.972,20,20,20H380.27c11.028,0,20-8.972,20-20V64.436
		C400.27,53.408,391.299,44.436,380.27,44.436z M146.194,74.45h22.631v18.506c0,5.514,4.486,10,10,10h77.913c5.514,0,10-4.486,10-10
		V74.45h22.631v51.286H146.194V74.45z M274.273,301.415l-0.004,11.303l-0.061,22.994l-112.985-0.024l-0.064-34.857
		c0-12.558,2.313-21.579,7.254-28.151c-8.223-10.525-12.558-23.877-12.558-38.758v-18.889c0-34.146,27.779-61.926,61.925-61.926
		s61.925,27.78,61.925,61.926v18.889c0,15.813-4.777,29.706-13.838,40.323C271.302,282.076,274.273,291.643,274.273,301.415z
		 M300.961,396.384H134.601v-33.739h166.361V396.384z"/>
	<polygon points="217.781,311.51 244.071,283.626 191.491,283.626 	"/>
</g>
<g>
</g>
<g>
</g>
<g>
</g>
<g>
</g>
<g>
</g>
<g>
</g>
<g>
</g>
<g>
</g>
<g>
</g>
<g>
</g>
<g>
</g>
<g>
</g>
<g>
</g>
<g>
</g>
<g>
</g>
</svg>
