<?xml version="1.0" encoding="iso-8859-1"?>
<!-- Generator: Adobe Illustrator 17.1.0, SVG Export Plug-In . SVG Version: 6.00 Build 0)  -->
<!DOCTYPE svg PUBLIC "-//W3C//DTD SVG 1.1//EN" "http://www.w3.org/Graphics/SVG/1.1/DTD/svg11.dtd">
<svg version="1.1" id="Capa_1" xmlns="http://www.w3.org/2000/svg" xmlns:xlink="http://www.w3.org/1999/xlink" x="0px" y="0px"
	 viewBox="0 0 428.52 428.52" style="enable-background:new 0 0 428.52 428.52;" xml:space="preserve">
<path d="M396.52,73.749H284.226c-0.156-2.297-0.843-4.457-2.071-6.338c-2.614-4.004-7.355-6.301-13.008-6.301H20
	c-11.028,0-20,8.972-20,20v266.299c0,11.028,8.972,20,20,20h249.146c5.656,0,10.395-2.297,12.999-6.302
	c1.223-1.881,1.903-4.041,2.051-6.337H396.52c17.645,0,32-14.355,32-32V105.749C428.52,88.104,414.164,73.749,396.52,73.749z
	 M394.52,320.771H272.025c-5.683-14.66-12.623-33.875-18.117-53.139h100.965v-36.743H245.721
	c-0.802-5.748-1.252-11.178-1.252-16.128c0-5.225,0.507-11.002,1.396-17.128h109.009v-36.743H254.135
	c5.503-19.281,12.401-38.486,18.04-53.139H394.52V320.771z"/>
<g>
</g>
<g>
</g>
<g>
</g>
<g>
</g>
<g>
</g>
<g>
</g>
<g>
</g>
<g>
</g>
<g>
</g>
<g>
</g>
<g>
</g>
<g>
</g>
<g>
</g>
<g>
</g>
<g>
</g>
</svg>
