<?xml version="1.0" encoding="iso-8859-1"?>
<!-- Generator: Adobe Illustrator 17.1.0, SVG Export Plug-In . SVG Version: 6.00 Build 0)  -->
<!DOCTYPE svg PUBLIC "-//W3C//DTD SVG 1.1//EN" "http://www.w3.org/Graphics/SVG/1.1/DTD/svg11.dtd">
<svg version="1.1" id="Capa_1" xmlns="http://www.w3.org/2000/svg" xmlns:xlink="http://www.w3.org/1999/xlink" x="0px" y="0px"
	 viewBox="0 0 452.232 452.232" style="enable-background:new 0 0 452.232 452.232;" xml:space="preserve">
<g>
	<path d="M169.88,186.918l-55.987,0.007c-1.565,0-2.195-0.921-6.659-8.134c-1.591-2.571-4.052-6.547-5.455-8.358
		c-1.396,1.766-3.838,5.61-5.419,8.1c-4.661,7.338-5.434,8.393-7.008,8.393h-7.893c-0.138,0-0.194,0.016-0.197,0.016l-0.215,0.061
		c-0.333,2.228-0.501,4.461-0.501,6.662v12.387c0,24.834,20.204,45.038,45.038,45.038s45.038-20.204,45.038-45.038v-12.387
		c0-2.202-0.168-4.438-0.502-6.668L169.88,186.918z"/>
	<path d="M432.232,72.765H20c-11.028,0-20,8.972-20,20v266.703c0,11.028,8.972,20,20,20h316.635c9.654,0,22.293-5.606,28.774-12.764
		l75.464-83.357c6.37-7.037,11.359-19.984,11.359-29.476V92.765C452.232,81.736,443.261,72.765,432.232,72.765z M246.298,148.935
		h151.558v28.183H246.298V148.935z M192.685,212.709c0,17.361-5.303,32.579-15.356,44.129c6.076,8.541,9.405,19.061,9.405,29.813
		l-0.003,12.077l-0.065,24.594l-122.307-0.025l-0.068-37.285c0-13.879,2.595-23.744,8.145-30.847
		C63.3,243.696,58.48,229.057,58.48,212.709v-20.694c0-37.001,30.102-67.104,67.103-67.104c37,0,67.102,30.103,67.102,67.104
		V212.709z M315.549,256.193h-69.251V228.01h69.251V256.193z M420.301,260.714l-79.363,87.919c-3.685,4.083-6.703,2.923-6.706-2.577
		l-0.043-82.818c-0.003-5.5,4.495-9.997,9.995-9.994l72.818,0.042C422.501,253.289,423.986,256.631,420.301,260.714z"/>
	<polygon points="125.583,299.354 158.391,264.556 92.775,264.556 	"/>
</g>
<g>
</g>
<g>
</g>
<g>
</g>
<g>
</g>
<g>
</g>
<g>
</g>
<g>
</g>
<g>
</g>
<g>
</g>
<g>
</g>
<g>
</g>
<g>
</g>
<g>
</g>
<g>
</g>
<g>
</g>
</svg>
