<?xml version="1.0" encoding="iso-8859-1"?>
<!-- Generator: Adobe Illustrator 17.1.0, SVG Export Plug-In . SVG Version: 6.00 Build 0)  -->
<!DOCTYPE svg PUBLIC "-//W3C//DTD SVG 1.1//EN" "http://www.w3.org/Graphics/SVG/1.1/DTD/svg11.dtd">
<svg version="1.1" id="Capa_1" xmlns="http://www.w3.org/2000/svg" xmlns:xlink="http://www.w3.org/1999/xlink" x="0px" y="0px"
	 viewBox="0 0 421.283 421.283" style="enable-background:new 0 0 421.283 421.283;" xml:space="preserve">
<g>
	<rect x="298.891" y="204.64" width="32.259" height="24.349"/>
	<path d="M389.283,26.605H123.872c-17.645,0-32,14.355-32,32v55.422c-32.09,20.804-58.097,58.186-55.86,81.179l5.036,52.177
		L0.88,308.803c-1.505,2.302-1.032,5.653,1.052,7.448l89.571,77.139c2.084,1.795,5.41,1.703,7.393-0.203l129.248-112.521h161.139
		c17.645,0,32-14.355,32-32V58.605C421.283,40.961,406.928,26.605,389.283,26.605z M387.283,246.665H125.872v-98.098
		c1.118-0.442,1.963-0.763,2.323-0.882c16.387-5.402,35.449-8.553,34.795-29.161c-0.196-6.186-2.82-12.085-7.389-16.373
		c-9.164-8.617-18.808-7.206-29.729-3.539V60.605h261.411V246.665z"/>
	<polygon points="256.574,109.677 293.027,133.677 337.18,104.608 321.782,81.222 293.027,100.153 256.573,76.153 220.124,100.152 
		191.374,81.222 175.975,104.608 220.124,133.678 	"/>
	<rect x="168.911" y="147.982" width="175.333" height="28"/>
	<rect x="182.006" y="204.64" width="32.259" height="24.349"/>
	<rect x="240.448" y="204.64" width="32.259" height="24.349"/>
</g>
<g>
</g>
<g>
</g>
<g>
</g>
<g>
</g>
<g>
</g>
<g>
</g>
<g>
</g>
<g>
</g>
<g>
</g>
<g>
</g>
<g>
</g>
<g>
</g>
<g>
</g>
<g>
</g>
<g>
</g>
</svg>
