<?xml version="1.0" encoding="iso-8859-1"?>
<!-- Generator: Adobe Illustrator 17.1.0, SVG Export Plug-In . SVG Version: 6.00 Build 0)  -->
<!DOCTYPE svg PUBLIC "-//W3C//DTD SVG 1.1//EN" "http://www.w3.org/Graphics/SVG/1.1/DTD/svg11.dtd">
<svg version="1.1" id="Capa_1" xmlns="http://www.w3.org/2000/svg" xmlns:xlink="http://www.w3.org/1999/xlink" x="0px" y="0px"
	 viewBox="0 0 432.232 432.232" style="enable-background:new 0 0 432.232 432.232;" xml:space="preserve">
<g>
	<polygon points="312.245,306.497 334.056,316.497 361.702,303.822 350.033,278.369 334.056,285.694 312.244,275.694 
		290.436,285.694 274.463,278.37 262.792,303.821 290.436,316.497 	"/>
	<path d="M107.959,218.003c-1.859,0-2.591-1.183-6.651-7.743c-1.258-2.033-3.131-5.061-4.412-6.859
		c-1.271,1.748-3.124,4.665-4.371,6.627c-4.344,6.841-5.118,7.976-6.967,7.976h-6.986c-0.251,1.832-0.378,3.667-0.378,5.476v11.307
		c0,22.296,18.139,40.436,40.436,40.436s40.436-18.14,40.436-40.436v-11.307c0-1.809-0.127-3.644-0.378-5.476H107.959z"/>
	<path d="M412.232,99.44H294.292c-2.589-40.881-36.653-73.353-78.176-73.353S140.53,58.559,137.941,99.44H20
		c-11.028,0-20,8.972-20,20v266.704c0,11.028,8.972,20,20,20h392.232c11.028,0,20-8.972,20-20V119.44
		C432.232,108.412,423.26,99.44,412.232,99.44z M180.555,240.864c0,15.813-4.777,29.705-13.838,40.323
		c5.434,7.831,8.405,17.397,8.405,27.17l-0.004,11.303l-0.061,22.994L62.072,342.63l-0.063-34.856
		c0-12.558,2.314-21.58,7.254-28.151c-8.223-10.524-12.558-23.876-12.558-38.758v-18.89c0-34.146,27.779-61.926,61.925-61.926
		s61.925,27.78,61.925,61.926V240.864z M216.116,132.792c-15.658,0-28.352-12.694-28.352-28.352s12.694-28.352,28.352-28.352
		s28.352,12.694,28.352,28.352S231.775,132.792,216.116,132.792z M373.027,342.066H251.468v-91.942h121.558V342.066z
		 M373.027,216.001H251.468v-28.183h121.558V216.001z"/>
	<polygon points="118.63,318.453 144.921,290.568 92.34,290.568 	"/>
</g>
<g>
</g>
<g>
</g>
<g>
</g>
<g>
</g>
<g>
</g>
<g>
</g>
<g>
</g>
<g>
</g>
<g>
</g>
<g>
</g>
<g>
</g>
<g>
</g>
<g>
</g>
<g>
</g>
<g>
</g>
</svg>
