<?xml version="1.0" encoding="iso-8859-1"?>
<!-- Generator: Adobe Illustrator 17.1.0, SVG Export Plug-In . SVG Version: 6.00 Build 0)  -->
<!DOCTYPE svg PUBLIC "-//W3C//DTD SVG 1.1//EN" "http://www.w3.org/Graphics/SVG/1.1/DTD/svg11.dtd">
<svg version="1.1" id="Capa_1" xmlns="http://www.w3.org/2000/svg" xmlns:xlink="http://www.w3.org/1999/xlink" x="0px" y="0px"
	 viewBox="0 0 462.232 462.232" style="enable-background:new 0 0 462.232 462.232;" xml:space="preserve">
<g>
	<path d="M110.743,259.435c24.102-0.036,43.722-19.685,43.722-43.801v-12.852c0-1.345-0.065-2.704-0.194-4.066h-6.018
		c-10.394,0-14.003-9.89-15.737-16.05c-9.836,4.652-34.336,15.54-65.314,16.033c-0.13,1.368-0.195,2.732-0.195,4.083v12.852
		C67.006,239.75,86.626,259.399,110.743,259.435z"/>
	<path d="M442.232,77.764H20c-11.028,0-20,8.972-20,20v266.704c0,11.028,8.972,20,20,20h422.232c11.028,0,20-8.972,20-20V97.764
		C462.232,86.736,453.261,77.764,442.232,77.764z M177.179,310.455l-0.077,30.654H44.37l-0.078-30.85v-24.454
		c0-12.532,13.515-17.287,24.374-21.108c2.538-0.893,5.428-1.91,7.725-2.936c-0.448-0.494-0.903-0.993-1.365-1.5
		c-9.407-10.318-20.065-22.009-20.134-42.636l-1.264-16.166c-2.829-36.392,15.333-41.987,42.825-50.457
		c4.045-1.247,8.228-2.535,12.711-4.021c5.769-1.912,11.435-2.881,16.841-2.881c11.475,0,21.511,4.292,29.025,12.413
		c9.702,10.485,14.253,26.447,12.815,44.945c-0.297,3.823-1.142,14.601-1.265,16.167c-0.069,20.626-10.727,32.317-20.133,42.635
		c-0.462,0.507-0.917,1.006-1.366,1.5c2.297,1.026,5.188,2.043,7.725,2.936c10.859,3.821,24.374,8.576,24.374,21.108
		L177.179,310.455z M427.314,339.41H240.902v-98.574h186.412V339.41z M427.314,190.627H240.902v-40.452h186.412V190.627z"/>
	<path d="M268.681,300.039h6.623c5.489,0,9.913-1.448,13.149-4.303c3.311-2.918,4.989-6.808,4.989-11.561
		c0-4.749-1.677-8.646-4.982-11.585c-3.238-2.879-7.664-4.338-13.156-4.338h-19.366v47.596h12.743V300.039z M268.681,278.99h6.623
		c1.884,0,3.218,0.458,4.077,1.398c0.907,0.996,1.349,2.254,1.349,3.848c0,1.539-0.438,2.749-1.339,3.7
		c-0.87,0.919-2.207,1.366-4.087,1.366h-6.623V278.99z"/>
	<path d="M302.438,315.849l2.964-9.402h12.367l2.964,9.402h13.1l-16.312-47.596h-11.809l-16.378,47.596H302.438z M311.595,286.826
		l2.759,8.764h-5.532L311.595,286.826z"/>
	<path d="M340.74,312.454c3.857,2.67,8.421,4.023,13.563,4.023c5.242,0,9.563-1.218,12.845-3.62
		c3.474-2.543,5.234-6.058,5.234-10.447c0-4.153-1.476-7.568-4.386-10.149c-2.692-2.389-6.636-4.317-11.654-5.711
		c-3.918-1.236-5.721-2.175-6.543-2.746c-1.055-0.731-1.19-1.45-1.19-1.994c0-1.019,0.363-1.769,1.177-2.43
		c0.906-0.736,2.306-1.109,4.158-1.109c1.931,0,3.343,0.438,4.315,1.339c0.941,0.872,1.38,1.961,1.38,3.428v2h11.91l0.615-1.826
		l0.008-0.301c0.116-4.352-1.593-8.052-5.081-10.998c-3.37-2.846-7.743-4.29-12.997-4.29c-5.149,0-9.475,1.276-12.857,3.794
		c-3.563,2.653-5.371,6.139-5.371,10.362c0,4.208,1.601,7.581,4.757,10.025c2.884,2.233,6.952,4.087,12.414,5.663
		c3.354,1.013,4.854,1.907,5.52,2.479c0.739,0.633,1.083,1.436,1.083,2.524c0,1.021-0.344,1.745-1.113,2.343
		c-0.893,0.694-2.313,1.046-4.223,1.046c-2.374,0-4.197-0.472-5.421-1.403c-1.071-0.815-1.592-2.16-1.592-4.112v-2h-11.939
		l-0.616,1.83l-0.007,0.305C334.612,305.585,336.635,309.614,340.74,312.454z"/>
	<path d="M382.635,312.454c3.857,2.67,8.421,4.023,13.563,4.023c5.242,0,9.563-1.218,12.845-3.62
		c3.474-2.543,5.234-6.058,5.234-10.447c0-4.153-1.476-7.568-4.386-10.149c-2.692-2.389-6.636-4.317-11.654-5.711
		c-3.918-1.236-5.721-2.175-6.543-2.746c-1.055-0.731-1.19-1.45-1.19-1.994c0-1.019,0.363-1.769,1.177-2.43
		c0.906-0.736,2.306-1.109,4.158-1.109c1.931,0,3.343,0.438,4.315,1.339c0.941,0.872,1.38,1.961,1.38,3.428v2h11.91l0.615-1.826
		l0.008-0.301c0.116-4.352-1.593-8.052-5.081-10.998c-3.37-2.846-7.743-4.29-12.997-4.29c-5.149,0-9.475,1.276-12.857,3.794
		c-3.563,2.653-5.371,6.139-5.371,10.362c0,4.208,1.601,7.581,4.757,10.025c2.884,2.233,6.952,4.087,12.414,5.663
		c3.354,1.013,4.854,1.907,5.52,2.479c0.739,0.633,1.083,1.436,1.083,2.524c0,1.021-0.344,1.745-1.113,2.343
		c-0.893,0.694-2.313,1.046-4.223,1.046c-2.374,0-4.197-0.472-5.421-1.403c-1.071-0.815-1.592-2.16-1.592-4.112v-2h-11.939
		l-0.616,1.83l-0.007,0.305C376.507,305.585,378.531,309.614,382.635,312.454z"/>
	<polygon points="110.736,312.438 144.775,276.335 76.696,276.335 	"/>
</g>
<g>
</g>
<g>
</g>
<g>
</g>
<g>
</g>
<g>
</g>
<g>
</g>
<g>
</g>
<g>
</g>
<g>
</g>
<g>
</g>
<g>
</g>
<g>
</g>
<g>
</g>
<g>
</g>
<g>
</g>
</svg>
