<?xml version="1.0" encoding="iso-8859-1"?>
<!-- Generator: Adobe Illustrator 17.1.0, SVG Export Plug-In . SVG Version: 6.00 Build 0)  -->
<!DOCTYPE svg PUBLIC "-//W3C//DTD SVG 1.1//EN" "http://www.w3.org/Graphics/SVG/1.1/DTD/svg11.dtd">
<svg version="1.1" id="Capa_1" xmlns="http://www.w3.org/2000/svg" xmlns:xlink="http://www.w3.org/1999/xlink" x="0px" y="0px"
	 viewBox="0 0 452.232 452.232" style="enable-background:new 0 0 452.232 452.232;" xml:space="preserve">
<g>
	<path d="M108.219,204.303c-4.678,0-8.143,1.99-10.594,6.081c-2.694,4.494-4.495,11.514-5.356,20.865
		c-0.463,5.899-0.061,10.377,1.197,13.276c1.337,3.083,3.23,3.478,4.73,3.478c2.391,0,4.486-0.535,6.406-1.635
		c1.749-1.002,3.395-2.926,4.898-5.723c0.007-0.237,0.039-0.487,0.097-0.759l3.101-35.056c-0.434-0.099-0.868-0.187-1.299-0.263
		C110.389,204.393,109.319,204.303,108.219,204.303z"/>
	<path d="M432.232,72.765H20c-11.028,0-20,8.972-20,20v266.703c0,11.028,8.972,20,20,20h316.635c9.654,0,22.293-5.606,28.774-12.764
		l75.464-83.357c6.37-7.037,11.359-19.984,11.359-29.476V92.765C452.232,81.736,443.261,72.765,432.232,72.765z M204.623,162.62
		h198.83v30.893h-198.83V162.62z M167.83,223.926c-0.467,11.321-3.849,21.235-10.053,29.472c-6.382,8.474-15.984,12.77-28.537,12.77
		c-4.411,0-8.299-1.275-11.557-3.789c-2.055-1.586-3.739-3.577-5.037-5.951c-1.887,2.526-4.059,4.563-6.489,6.084
		c-3.638,2.277-7.927,3.431-12.749,3.431c-7.87,0-13.997-3.368-18.211-10.01c-4.042-6.369-5.56-14.809-4.511-25.084
		c1.284-13.052,5.06-23.708,11.222-31.665c6.358-8.208,14.229-12.371,23.393-12.371c6.038,0,11.01,0.704,14.777,2.092
		c3.63,1.34,7.632,3.404,11.898,6.136h1.592l-0.086,0.968l0.775,0.498l-0.93,1.241l-3.805,42.754
		c-0.405,5.49,0.275,7.55,0.716,8.286c0.771,1.286,1.553,1.459,2.217,1.459c4.907,0,8.764-2.306,11.789-7.05
		c3.223-5.054,5.049-11.607,5.427-19.477c0.767-16.937-2.503-30.278-9.718-39.647c-7.094-9.21-18.325-13.881-33.38-13.881
		c-14.509,0-25.757,4.937-34.387,15.092c-8.631,10.157-13.374,24.041-14.096,41.268c-0.816,17.041,2.685,30.597,10.406,40.306
		c7.722,9.712,18.587,14.434,33.215,14.434c4.043,0,8.287-0.485,12.614-1.44c4.327-0.957,8.077-2.16,11.146-3.576l2.595-1.198
		l3.995,15.455l-1.481,0.928c-3.552,2.227-8.092,3.978-13.493,5.204c-5.314,1.206-10.588,1.818-15.677,1.818
		c-20.382,0-36.355-6.546-47.476-19.455c-11.055-12.833-16.22-30.553-15.351-52.669c0.918-21.784,7.562-39.499,19.747-52.657
		c12.258-13.24,28.59-19.953,48.542-19.953c19.94,0,35.477,6.386,46.178,18.982C163.674,185.238,168.647,202.462,167.83,223.926z
		 M296.137,269.876h-91.514v-30.893h91.514V269.876z M420.301,260.714l-79.363,87.919c-3.685,4.083-6.703,2.923-6.706-2.577
		l-0.043-82.818c-0.003-5.5,4.495-9.997,9.995-9.994l72.818,0.042C422.501,253.289,423.986,256.631,420.301,260.714z"/>
</g>
<g>
</g>
<g>
</g>
<g>
</g>
<g>
</g>
<g>
</g>
<g>
</g>
<g>
</g>
<g>
</g>
<g>
</g>
<g>
</g>
<g>
</g>
<g>
</g>
<g>
</g>
<g>
</g>
<g>
</g>
</svg>
