<?xml version="1.0" encoding="iso-8859-1"?>
<!-- Generator: Adobe Illustrator 17.1.0, SVG Export Plug-In . SVG Version: 6.00 Build 0)  -->
<!DOCTYPE svg PUBLIC "-//W3C//DTD SVG 1.1//EN" "http://www.w3.org/Graphics/SVG/1.1/DTD/svg11.dtd">
<svg version="1.1" id="Capa_1" xmlns="http://www.w3.org/2000/svg" xmlns:xlink="http://www.w3.org/1999/xlink" x="0px" y="0px"
	 viewBox="0 0 437.086 437.086" style="enable-background:new 0 0 437.086 437.086;" xml:space="preserve">
<g>
	<path d="M342.086,124.337H20c-11.028,0-20,8.972-20,20v223.412c0,11.028,8.972,20,20,20h250.436
		c9.766,0,22.172-5.989,28.245-13.634l52.988-66.7c5.841-7.353,10.416-20.467,10.416-29.855V144.337
		C362.086,133.309,353.114,124.337,342.086,124.337z M238.71,308.577H123.376v-28H238.71V308.577z M224.236,245.524l-43.198-24
		l-43.193,24l-49.994-27.778l13.6-24.475l36.394,20.222l43.192-24l43.199,24l36.399-20.223l13.598,24.477L224.236,245.524z
		 M333.614,287.104l-56.844,72.067c-3.406,4.318-6.195,3.352-6.198-2.148l-0.035-67.816c-0.003-5.5,4.495-9.997,9.995-9.993
		l49.276,0.033C335.307,279.25,337.02,282.786,333.614,287.104z"/>
	<path d="M417.086,49.337H95c-11.028,0-20,8.972-20,20v5c0,11.028,8.972,20,20,20h287.085c5.514,0,10,4.486,10,10v142.279
		c0,11.692,7.161,12.285,8.597,12.285c3.281,0,6.528-1.992,9.648-5.92l16.339-20.566c5.841-7.353,10.416-20.467,10.416-29.855
		V69.337C437.086,58.309,428.114,49.337,417.086,49.337z"/>
</g>
<g>
</g>
<g>
</g>
<g>
</g>
<g>
</g>
<g>
</g>
<g>
</g>
<g>
</g>
<g>
</g>
<g>
</g>
<g>
</g>
<g>
</g>
<g>
</g>
<g>
</g>
<g>
</g>
<g>
</g>
</svg>
