<?xml version="1.0" encoding="iso-8859-1"?>
<!-- Generator: Adobe Illustrator 17.1.0, SVG Export Plug-In . SVG Version: 6.00 Build 0)  -->
<!DOCTYPE svg PUBLIC "-//W3C//DTD SVG 1.1//EN" "http://www.w3.org/Graphics/SVG/1.1/DTD/svg11.dtd">
<svg version="1.1" id="Capa_1" xmlns="http://www.w3.org/2000/svg" xmlns:xlink="http://www.w3.org/1999/xlink" x="0px" y="0px"
	 viewBox="0 0 394.221 394.221" style="enable-background:new 0 0 394.221 394.221;" xml:space="preserve">
<g>
	<polygon points="285.187,320.46 308.521,334.46 339.058,316.138 324.652,292.128 308.521,301.807 285.186,287.807 261.856,301.806 
		245.729,292.129 231.322,316.138 261.856,334.46 	"/>
	<path d="M130.01,122.196h134.2c5.514,0,10-4.486,10-10V67.578c0-5.514-4.486-10-10-10h-19.652c0.581-2.991,0.895-6.076,0.895-9.234
		C245.454,21.687,223.767,0,197.11,0s-48.343,21.687-48.343,48.344c0,3.158,0.314,6.243,0.895,9.234H130.01c-5.514,0-10,4.486-10,10
		v44.618C120.01,117.71,124.496,122.196,130.01,122.196z M197.11,28.344c11.046,0,20,8.954,20,20c0,11.046-8.954,20-20,20
		s-20-8.954-20-20C177.11,37.298,186.065,28.344,197.11,28.344z"/>
	<path d="M114.995,278.226c23.306-0.035,42.278-19.036,42.278-42.355v-12.471c0-1.256-0.059-2.525-0.175-3.797h-5.705
		c-10.037,0-13.705-9.724-15.364-15.515c-9.641,4.552-33.285,14.991-63.152,15.496c-0.117,1.278-0.176,2.553-0.176,3.816v12.471
		C72.701,259.19,91.674,278.191,114.995,278.226z"/>
	<path d="M368.227,77.517H318.21c-11.028,0-20,8.972-20,20v38.68c0,5.514-4.486,10-10,10h-182.2c-5.514,0-10-4.486-10-10v-38.68
		c0-11.028-8.972-20-20-20H25.994c-11.028,0-20,8.972-20,20v276.704c0,11.028,8.972,20,20,20h342.232c11.028,0,20-8.972,20-20
		V97.517C388.227,86.489,379.255,77.517,368.227,77.517z M179.61,327.902l-0.075,29.875H50.439l-0.076-30.083v-23.73
		c0-12.265,13.169-16.899,23.751-20.622c2.393-0.842,5.109-1.798,7.299-2.761c-0.391-0.43-0.786-0.864-1.187-1.303
		c-9.146-10.032-19.509-21.396-19.577-41.467c-0.121-1.54-0.939-11.978-1.227-15.683c-2.754-35.431,14.915-40.875,41.66-49.115
		c3.925-1.209,7.983-2.459,12.332-3.9c5.613-1.86,11.127-2.803,16.389-2.803c11.177,0,20.954,4.182,28.273,12.092
		c9.443,10.205,13.873,25.734,12.474,43.727c-0.288,3.705-1.105,14.142-1.226,15.682c-0.068,20.071-10.431,31.436-19.577,41.467
		c-0.401,0.439-0.797,0.874-1.187,1.303c2.189,0.963,4.906,1.919,7.299,2.761c10.582,3.723,23.75,8.356,23.75,20.622L179.61,327.902
		z M353.729,356.826H216.652v-91.384h137.077V356.826z M354.328,235.821H216.054v-25.886h138.274V235.821z"/>
	<polygon points="114.987,329.808 148.018,294.773 81.956,294.773 	"/>
</g>
<g>
</g>
<g>
</g>
<g>
</g>
<g>
</g>
<g>
</g>
<g>
</g>
<g>
</g>
<g>
</g>
<g>
</g>
<g>
</g>
<g>
</g>
<g>
</g>
<g>
</g>
<g>
</g>
<g>
</g>
</svg>
