<?xml version="1.0" encoding="iso-8859-1"?>
<!-- Generator: Adobe Illustrator 17.1.0, SVG Export Plug-In . SVG Version: 6.00 Build 0)  -->
<!DOCTYPE svg PUBLIC "-//W3C//DTD SVG 1.1//EN" "http://www.w3.org/Graphics/SVG/1.1/DTD/svg11.dtd">
<svg version="1.1" id="Capa_1" xmlns="http://www.w3.org/2000/svg" xmlns:xlink="http://www.w3.org/1999/xlink" x="0px" y="0px"
	 viewBox="0 0 459.632 459.632" style="enable-background:new 0 0 459.632 459.632;" xml:space="preserve">
<g>
	<path d="M96.273,307.777c-3.376,0-5.877,1.436-7.645,4.388c-1.944,3.243-3.244,8.309-3.865,15.057
		c-0.334,4.257-0.044,7.488,0.864,9.581c0.965,2.225,2.331,2.51,3.413,2.51c1.725,0,3.237-0.386,4.623-1.18
		c1.262-0.723,2.45-2.111,3.535-4.13c0.005-0.171,0.028-0.352,0.07-0.547l2.238-25.298c-0.313-0.072-0.626-0.135-0.938-0.19
		C97.839,307.841,97.067,307.777,96.273,307.777z"/>
	<path d="M369.021,134.176H20c-11.028,0-20,8.972-20,20v230.736c0,11.028,8.972,20,20,20h349.021c11.028,0,20-8.972,20-20V154.176
		C389.021,143.148,380.048,134.176,369.021,134.176z M139.291,321.937c-0.337,8.17-2.778,15.324-7.255,21.268
		c-4.606,6.115-11.535,9.215-20.594,9.215c-3.183,0-5.989-0.92-8.34-2.734c-1.483-1.144-2.698-2.581-3.635-4.295
		c-1.362,1.823-2.929,3.293-4.682,4.391c-2.625,1.643-5.721,2.476-9.2,2.476c-5.68,0-10.101-2.431-13.142-7.224
		c-2.917-4.597-4.012-10.687-3.255-18.102c0.926-9.419,3.651-17.109,8.099-22.851c4.588-5.924,10.268-8.927,16.882-8.927
		c4.357,0,7.945,0.508,10.664,1.51c2.62,0.967,5.508,2.457,8.586,4.428h1.149l-0.062,0.698l0.559,0.36l-0.671,0.896l-2.746,30.854
		c-0.292,3.962,0.198,5.448,0.517,5.979c0.557,0.928,1.121,1.053,1.6,1.053c3.542,0,6.324-1.664,8.507-5.088
		c2.326-3.647,3.643-8.376,3.916-14.056c0.553-12.222-1.806-21.85-7.013-28.611c-5.12-6.647-13.224-10.017-24.088-10.017
		c-10.471,0-18.588,3.563-24.815,10.891c-6.229,7.33-9.651,17.349-10.172,29.781c-0.589,12.298,1.937,22.08,7.509,29.087
		c5.573,7.009,13.413,10.416,23.97,10.416c2.917,0,5.98-0.35,9.103-1.039c3.123-0.69,5.829-1.559,8.044-2.581l1.873-0.864
		l2.883,11.153l-1.069,0.67c-2.563,1.607-5.84,2.87-9.737,3.756c-3.835,0.87-7.641,1.312-11.313,1.312
		c-14.709,0-26.236-4.724-34.261-14.04c-7.978-9.261-11.705-22.048-11.078-38.008c0.663-15.721,5.457-28.504,14.25-38
		c8.846-9.554,20.632-14.399,35.03-14.399c14.39,0,25.602,4.609,33.324,13.698C136.292,294.018,139.881,306.448,139.291,321.937z
		 M131.623,244.808c-0.554,0.481-1.094,0.949-1.597,1.408c-1.709,1.56-4.966,3.418-10.777,3.418c-0.001,0-0.003,0-0.003,0
		c-13.268-0.001-32.054-9.321-47.859-23.742c-10.69-9.757-18.876-20.69-23.048-30.785c-4.2-10.161-3.917-18.445,0.778-22.728
		c0.502-0.458,1.014-0.95,1.54-1.455c3.332-3.198,7.897-7.577,14.175-7.577c4.671,0,8.99,2.326,13.204,7.113
		c11.084,12.577,6.561,18.478,0.007,24.369c-0.119,0.107-0.24,0.215-0.36,0.324c0.335,1.165,2.152,5.069,11.993,14.049
		c9.842,8.982,14.118,10.639,15.393,10.945c0.121-0.112,0.241-0.223,0.36-0.333c3.088-2.86,6.589-6.102,12.182-6.102
		c4.281,0,8.759,1.884,14.521,6.109c5.05,3.706,7.595,7.497,7.782,11.591C140.187,237.376,135.237,241.671,131.623,244.808z
		 M343.64,343.306H191.93V303.73H343.64V343.306z M343.64,226.279H191.93v-39.576H343.64V226.279z"/>
	<path d="M439.632,54.719H90.611c-11.028,0-20,8.972-20,20v10.766c0,11.028,8.972,20,20,20h316.101c5.514,0,10,4.486,10,10v189.971
		c0,11.028,8.972,20,20,20h2.919c11.028,0,20-8.972,20-20V74.719C459.632,63.691,450.66,54.719,439.632,54.719z"/>
</g>
<g>
</g>
<g>
</g>
<g>
</g>
<g>
</g>
<g>
</g>
<g>
</g>
<g>
</g>
<g>
</g>
<g>
</g>
<g>
</g>
<g>
</g>
<g>
</g>
<g>
</g>
<g>
</g>
<g>
</g>
</svg>
