<?xml version="1.0" encoding="iso-8859-1"?>
<!-- Generator: Adobe Illustrator 16.0.0, SVG Export Plug-In . SVG Version: 6.00 Build 0)  -->
<!DOCTYPE svg PUBLIC "-//W3C//DTD SVG 1.1//EN" "http://www.w3.org/Graphics/SVG/1.1/DTD/svg11.dtd">
<svg version="1.1" id="Layer_1" xmlns="http://www.w3.org/2000/svg" xmlns:xlink="http://www.w3.org/1999/xlink" x="0px" y="0px"
	 width="792px" height="792px" viewBox="0 0 792 792" style="enable-background:new 0 0 792 792;" xml:space="preserve">
<path d="M349.343,346.129l159.131,112.632l-25.332,35.791L324.011,381.92L349.343,346.129z M605.086,392.999l5.152,3.647
	c8.98,6.355,14.953,15.848,16.814,26.73c1.861,10.881-0.614,21.819-6.971,30.8L520.694,594.59
	c-7.713,10.899-20.322,17.409-33.728,17.409c-8.578,0-16.809-2.616-23.802-7.565l-249.695-176.74
	c-8.98-6.356-14.952-15.851-16.813-26.731c-1.861-10.882,0.615-21.82,6.972-30.8l1.887-2.666l-9.343,3.418
	c-2.837,1.039-5.804,1.565-8.814,1.565c-10.813,0-20.567-6.804-24.271-16.928L91.571,160.051
	c-4.885-13.358,2.007-28.2,15.363-33.085L449.741,1.566C452.579,0.526,455.544,0,458.556,0c10.813,0,20.565,6.802,24.271,16.928
	l46.203,126.305l54.438-3.67c0.921-0.062,1.857-0.093,2.781-0.093c21.634,0,39.718,16.91,41.173,38.494l11.574,171.64
	c0.74,10.976-2.852,21.602-10.117,29.915C622.623,386.681,614.295,391.365,605.086,392.999z M385.04,205.133l12.405,33.913
	l99.284-36.318l-12.405-33.913L385.04,205.133z M356.597,127.379l12.406,33.913l99.283-36.318l-12.405-33.914L356.597,127.379z
	 M215.781,336.511l128.105-48.688l-11.047-29.291l-9.123-24.003c-4.253-11.195-18.224-11.195-24.938-11.195
	c-1.998,0-4.008,0.05-5.974,0.1c-1.806,0.044-3.57,0.089-5.247,0.089c-0.827,0.062-2.629-0.001-4.391-0.159
	c0.365-0.938,0.741-1.888,1.124-2.858c5.303-13.434,11.313-28.655,3.817-48.552l-4.764-16.255
	c-7.75-26.389-25.464-42.781-46.231-42.781c-10.21,0-20.603,4.065-30.054,11.757c-3.827,3.116-7.431,5.925-10.916,8.641
	c-23.398,18.237-38.857,30.285-22.853,64.21l7.234,15.318c7.612,19.853,22.214,27.239,35.103,33.758
	c0.931,0.471,1.843,0.933,2.738,1.39c-1.91,2.017-4.64,4.325-7.161,6.453c-9.002,7.607-20.207,17.073-15.74,28.827l9.062,23.843
	L215.781,336.511z M582.801,430.949L395.154,298.127l-117.143,42.851l-37.1,52.415l245.484,173.759L582.801,430.949z
	 M595.072,349.98l-11.227-166.492l-39.125,2.637l9.622,26.304c4.887,13.357-2.006,28.2-15.361,33.085l-93.789,34.308l103.531,73.28
	L595.072,349.98z M250.075,233.842c23.848-9.104,35.879-35.937,26.806-59.812l-4.762-12.531c-0.582-1.528-1.252-3.039-2.008-4.523
	l-6.459,2.454c-1.564,0.595-3.167,0.896-4.765,0.896c-7.678,0-12.917-6.615-16.206-11.146c-7.459,7.795-27.676,28.317-58.65,40.5
	c0.42,1.615,0.925,3.195,1.505,4.724l4.762,12.531c6.802,17.895,24.231,29.919,43.371,29.919
	C239.267,236.856,244.788,235.841,250.075,233.842z M269.461,284.867l19.809-47.814l-66.375,25.227L269.461,284.867z"/>
<g>
</g>
<g>
</g>
<g>
</g>
<g>
</g>
<g>
</g>
<g>
</g>
<g>
</g>
<g>
</g>
<g>
</g>
<g>
</g>
<g>
</g>
<g>
</g>
<g>
</g>
<g>
</g>
<g>
</g>
</svg>
