<?xml version="1.0" encoding="iso-8859-1"?>
<!-- Generator: Adobe Illustrator 17.1.0, SVG Export Plug-In . SVG Version: 6.00 Build 0)  -->
<!DOCTYPE svg PUBLIC "-//W3C//DTD SVG 1.1//EN" "http://www.w3.org/Graphics/SVG/1.1/DTD/svg11.dtd">
<svg version="1.1" id="Capa_1" xmlns="http://www.w3.org/2000/svg" xmlns:xlink="http://www.w3.org/1999/xlink" x="0px" y="0px"
	 viewBox="0 0 435.562 435.562" style="enable-background:new 0 0 435.562 435.562;" xml:space="preserve">
<g>
	<path d="M217.789,258.724c21.006-0.031,38.108-17.159,38.108-38.18v-11.372c0-1-0.041-2.01-0.123-3.021h-4.797
		c-9.186,0-12.68-8.54-14.289-13.968c-9.049,4.247-30.23,13.406-56.898,13.943c-0.083,1.021-0.125,2.038-0.125,3.046v11.372
		C179.665,241.565,196.767,258.692,217.789,258.724z"/>
	<path d="M380.27,44.436H266.738V10c0-5.514-4.486-10-10-10h-77.913c-5.514,0-10,4.486-10,10v34.436H55.292
		c-11.028,0-20,8.972-20,20v351.125c0,11.028,8.972,20,20,20H380.27c11.028,0,20-8.972,20-20V64.436
		C400.27,53.408,391.298,44.436,380.27,44.436z M146.194,74.45h22.631v18.506c0,5.514,4.486,10,10,10h77.913c5.514,0,10-4.486,10-10
		V74.45h22.63v51.286H146.194V74.45z M185.757,260.418c-8.391-9.203-17.896-19.629-17.965-38.088l-1.117-14.283
		c-2.537-32.66,14.591-37.937,38.298-45.241c3.576-1.102,7.273-2.241,11.234-3.554c5.163-1.711,10.238-2.579,15.083-2.579
		c10.318,0,19.345,3.862,26.105,11.168c8.694,9.396,12.774,23.675,11.49,40.205l-1.117,14.283
		c-0.068,18.459-9.575,28.887-17.967,38.089c-0.224,0.247-0.446,0.491-0.668,0.733c1.867,0.784,4.088,1.565,6.063,2.26
		c9.264,3.259,21.951,7.723,21.951,19.219l-0.002,22.073l-0.069,27.437H158.485l-0.071-27.872v-21.638
		c0-11.496,12.688-15.96,21.951-19.219c1.975-0.695,4.195-1.476,6.063-2.26C186.206,260.91,185.983,260.665,185.757,260.418z
		 M300.961,396.384H134.6v-33.739h166.361V396.384z"/>
	<polygon points="217.781,306.199 247.899,274.253 187.662,274.253 	"/>
</g>
<g>
</g>
<g>
</g>
<g>
</g>
<g>
</g>
<g>
</g>
<g>
</g>
<g>
</g>
<g>
</g>
<g>
</g>
<g>
</g>
<g>
</g>
<g>
</g>
<g>
</g>
<g>
</g>
<g>
</g>
</svg>
