<?xml version="1.0" encoding="iso-8859-1"?>
<!-- Generator: Adobe Illustrator 17.1.0, SVG Export Plug-In . SVG Version: 6.00 Build 0)  -->
<!DOCTYPE svg PUBLIC "-//W3C//DTD SVG 1.1//EN" "http://www.w3.org/Graphics/SVG/1.1/DTD/svg11.dtd">
<svg version="1.1" id="Capa_1" xmlns="http://www.w3.org/2000/svg" xmlns:xlink="http://www.w3.org/1999/xlink" x="0px" y="0px"
	 viewBox="0 0 464.4 464.4" style="enable-background:new 0 0 464.4 464.4;" xml:space="preserve">
<g>
	<path d="M357.773,180.973c-0.916-0.916-2.122-1.42-3.397-1.42c-1.348,0-2.646,0.581-3.563,1.595l-19.124,21.156V58.648
		c0-11.028-8.972-20-20-20H20c-11.028,0-20,8.972-20,20v201.535c0,11.028,8.972,20,20,20h241.288l-28.584,31.62
		c-1.491,1.651-3.844,4.391-5.243,6.107l-52.838,64.809c-1.708,2.096-1.542,5.356,0.369,7.268l3.172,3.172l-10.825,28.655
		c-0.579,1.534-0.271,2.478,0.089,3c0.419,0.604,1.112,0.938,1.953,0.938c0.481,0,1.012-0.108,1.576-0.321l28.655-10.824
		l3.172,3.172c0.987,0.987,2.392,1.554,3.854,1.554c1.264,0,2.477-0.421,3.414-1.185l64.809-52.838
		c1.719-1.402,4.458-3.754,6.106-5.243l130.656-118.109c0.994-0.899,1.561-2.122,1.594-3.442s-0.471-2.569-1.419-3.518
		L357.773,180.973z M223.512,217.95H108.179v-28h115.333V217.95z M209.038,154.898l-43.198-24l-43.192,24l-49.994-27.777
		l13.6-24.477l36.395,20.223l43.192-24l43.198,24l36.399-20.223l13.598,24.477L209.038,154.898z"/>
	<path d="M462.938,157.473l-27.64-27.641c-0.941-0.941-2.197-1.46-3.535-1.46c-1.339,0-2.595,0.519-3.536,1.46l-13.515,13.516
		l-3.342-3.342c-1.071-1.071-2.632-1.687-4.281-1.687c-1.164,0-2.257,0.308-3.159,0.889l-30.062,19.344
		c-1.154,0.742-1.863,1.842-1.998,3.094c-0.134,1.253,0.326,2.477,1.297,3.447l54.512,54.512c0.851,0.851,1.927,1.318,3.03,1.318
		c1.405,0,2.685-0.736,3.511-2.021l19.344-30.061c1.434-2.229,1.076-5.566-0.798-7.44l-3.342-3.342l13.515-13.515
		C464.888,162.595,464.888,159.422,462.938,157.473z"/>
</g>
<g>
</g>
<g>
</g>
<g>
</g>
<g>
</g>
<g>
</g>
<g>
</g>
<g>
</g>
<g>
</g>
<g>
</g>
<g>
</g>
<g>
</g>
<g>
</g>
<g>
</g>
<g>
</g>
<g>
</g>
</svg>
