<?xml version="1.0" encoding="iso-8859-1"?>
<!-- Generator: Adobe Illustrator 17.1.0, SVG Export Plug-In . SVG Version: 6.00 Build 0)  -->
<!DOCTYPE svg PUBLIC "-//W3C//DTD SVG 1.1//EN" "http://www.w3.org/Graphics/SVG/1.1/DTD/svg11.dtd">
<svg version="1.1" id="Capa_1" xmlns="http://www.w3.org/2000/svg" xmlns:xlink="http://www.w3.org/1999/xlink" x="0px" y="0px"
	 viewBox="0 0 422.232 422.232" style="enable-background:new 0 0 422.232 422.232;" xml:space="preserve">
<g>
	<path d="M127.5,228.946c25.333-0.037,45.956-20.69,45.956-46.039v-13.441c0-1.481-0.075-2.979-0.224-4.481h-6.503
		c-10.851,0-14.542-10.518-16.311-16.88c-10.13,4.802-35.958,16.391-68.666,16.865c-0.149,1.506-0.225,3.009-0.225,4.497v13.441
		C81.528,208.256,102.151,228.909,127.5,228.946z"/>
	<path d="M402.232,67.764H20c-11.028,0-20,8.972-20,20v246.704c0,11.028,8.972,20,20,20h382.232c11.028,0,20-8.972,20-20V87.764
		C422.232,76.736,413.261,67.764,402.232,67.764z M196.752,282.227l-0.079,31.681H58.312l-0.081-32.035v-25.576
		c0-12.944,14.05-17.887,25.338-21.859c2.88-1.013,5.983-2.105,8.389-3.204c-0.539-0.594-1.087-1.195-1.644-1.806
		c-9.812-10.762-20.929-22.957-20.998-44.445c-0.126-1.606-1.011-12.912-1.322-16.917c-2.944-37.876,15.98-43.707,44.628-52.533
		c4.231-1.304,8.607-2.651,13.299-4.206c6.01-1.992,11.911-3.001,17.541-3.001c11.935,0,22.374,4.463,30.188,12.908
		c10.103,10.918,14.841,27.551,13.343,46.833l-1.323,16.917c-0.068,21.492-11.186,33.684-20.998,44.446
		c-0.557,0.611-1.104,1.212-1.644,1.806c2.405,1.099,5.509,2.191,8.389,3.204c11.289,3.972,25.339,8.915,25.339,21.859
		L196.752,282.227z M358.394,261.33c-0.323,7.83-2.662,14.687-6.953,20.384c-4.414,5.861-11.055,8.832-19.737,8.832
		c-3.051,0-5.74-0.882-7.993-2.62c-1.421-1.097-2.586-2.474-3.484-4.116c-1.305,1.747-2.807,3.156-4.488,4.208
		c-2.516,1.575-5.483,2.373-8.818,2.373c-5.444,0-9.681-2.329-12.595-6.923c-2.796-4.405-3.845-10.243-3.12-17.349
		c0.888-9.027,3.5-16.398,7.762-21.9c4.397-5.677,9.841-8.556,16.179-8.556c4.176,0,7.615,0.487,10.22,1.447
		c2.511,0.927,5.279,2.354,8.229,4.244h1.101l-0.06,0.669l0.536,0.345l-0.643,0.858l-2.632,29.57
		c-0.28,3.797,0.19,5.221,0.495,5.731c0.533,0.889,1.074,1.009,1.533,1.009c3.394,0,6.061-1.595,8.153-4.876
		c2.229-3.495,3.492-8.028,3.753-13.471c0.53-11.714-1.731-20.941-6.722-27.421c-4.906-6.37-12.674-9.6-23.086-9.6
		c-10.035,0-17.814,3.414-23.783,10.438c-5.969,7.025-9.25,16.628-9.749,28.542c-0.564,11.786,1.857,21.162,7.197,27.877
		c5.341,6.717,12.855,9.983,22.973,9.983c2.796,0,5.731-0.335,8.724-0.996c2.993-0.662,5.587-1.494,7.709-2.473l1.795-0.828
		l2.763,10.689l-1.024,0.642c-2.457,1.54-5.597,2.751-9.333,3.599c-3.675,0.834-7.323,1.257-10.842,1.257
		c-14.097,0-25.145-4.527-32.836-13.456c-7.646-8.876-11.218-21.131-10.617-36.428c0.635-15.067,5.23-27.319,13.657-36.419
		c8.478-9.157,19.774-13.8,33.573-13.8c13.791,0,24.537,4.417,31.938,13.128C355.52,234.572,358.959,246.485,358.394,261.33z
		 M351.045,187.409c-0.531,0.461-1.049,0.91-1.531,1.349c-1.638,1.495-4.759,3.276-10.329,3.276c-0.001,0-0.002,0-0.003,0
		c-12.716-0.001-30.72-8.933-45.868-22.754c-10.245-9.351-18.091-19.829-22.09-29.505c-4.026-9.739-3.754-17.678,0.746-21.782
		c0.48-0.439,0.972-0.911,1.476-1.394c3.194-3.065,7.568-7.262,13.586-7.262c4.477,0,8.616,2.23,12.655,6.817
		c10.623,12.054,6.288,17.709,0.007,23.355c-0.115,0.103-0.23,0.206-0.345,0.311c0.321,1.117,2.063,4.858,11.494,13.465
		c9.432,8.609,13.531,10.197,14.753,10.489c0.116-0.107,0.231-0.214,0.345-0.32c2.96-2.741,6.315-5.848,11.675-5.848
		c4.103,0,8.395,1.806,13.917,5.855c4.84,3.552,7.279,7.185,7.458,11.109C359.253,180.286,354.509,184.402,351.045,187.409z"/>
	<path d="M317.165,247.759c-3.235,0-5.632,1.376-7.327,4.206c-1.863,3.108-3.109,7.963-3.705,14.431
		c-0.32,4.08-0.042,7.177,0.828,9.182c0.925,2.132,2.234,2.406,3.271,2.406c1.654,0,3.103-0.37,4.431-1.131
		c1.209-0.693,2.348-2.023,3.388-3.958c0.005-0.164,0.027-0.337,0.067-0.525l2.144-24.246c-0.3-0.068-0.6-0.129-0.899-0.182
		C318.666,247.82,317.926,247.759,317.165,247.759z"/>
	<polygon points="127.492,284.152 163.092,246.393 91.892,246.393 	"/>
</g>
<g>
</g>
<g>
</g>
<g>
</g>
<g>
</g>
<g>
</g>
<g>
</g>
<g>
</g>
<g>
</g>
<g>
</g>
<g>
</g>
<g>
</g>
<g>
</g>
<g>
</g>
<g>
</g>
<g>
</g>
</svg>
