<?xml version="1.0" encoding="iso-8859-1"?>
<!-- Generator: Adobe Illustrator 17.1.0, SVG Export Plug-In . SVG Version: 6.00 Build 0)  -->
<!DOCTYPE svg PUBLIC "-//W3C//DTD SVG 1.1//EN" "http://www.w3.org/Graphics/SVG/1.1/DTD/svg11.dtd">
<svg version="1.1" id="Capa_1" xmlns="http://www.w3.org/2000/svg" xmlns:xlink="http://www.w3.org/1999/xlink" x="0px" y="0px"
	 viewBox="0 0 460.212 460.212" style="enable-background:new 0 0 460.212 460.212;" xml:space="preserve">
<g>
	<path d="M440.212,54.634H91.191c-11.028,0-20,8.972-20,20V85.4c0,11.028,8.972,20,20,20h316.102c5.514,0,10,4.486,10,10v189.97
		c0,11.028,8.972,20,20,20h2.919c11.028,0,20-8.972,20-20V74.634C460.212,63.606,451.24,54.634,440.212,54.634z"/>
	<path d="M369.021,134.842H20c-11.028,0-20,8.972-20,20v230.736c0,11.028,8.972,20,20,20h349.021c11.028,0,20-8.972,20-20V154.841
		C389.021,143.813,380.049,134.842,369.021,134.842z M109.855,174.45l39.064,20.566l45.584-24l45.592,24l39.07-20.567l13.043,24.776
		l-52.113,27.433l-45.591-24l-45.585,24l-52.108-27.434L109.855,174.45z M141.592,354.011h-40.345v-30.452h40.345V354.011z
		 M214.683,354.011h-40.345v-30.452h40.345V354.011z M287.774,354.011h-40.345v-30.452h40.345V354.011z M354.177,284.209H34.844v-28
		h319.333V284.209z"/>
</g>
<g>
</g>
<g>
</g>
<g>
</g>
<g>
</g>
<g>
</g>
<g>
</g>
<g>
</g>
<g>
</g>
<g>
</g>
<g>
</g>
<g>
</g>
<g>
</g>
<g>
</g>
<g>
</g>
<g>
</g>
</svg>
