<?xml version="1.0" encoding="iso-8859-1"?>
<!-- Generator: Adobe Illustrator 17.1.0, SVG Export Plug-In . SVG Version: 6.00 Build 0)  -->
<!DOCTYPE svg PUBLIC "-//W3C//DTD SVG 1.1//EN" "http://www.w3.org/Graphics/SVG/1.1/DTD/svg11.dtd">
<svg version="1.1" id="Capa_1" xmlns="http://www.w3.org/2000/svg" xmlns:xlink="http://www.w3.org/1999/xlink" x="0px" y="0px"
	 viewBox="0 0 432.232 432.232" style="enable-background:new 0 0 432.232 432.232;" xml:space="preserve">
<g>
	<polygon points="277.851,310.587 300.424,286.646 255.278,286.646 	"/>
	<polygon points="154.381,310.587 176.954,286.646 131.809,286.646 	"/>
	<path d="M154.387,275.254c12.832-0.019,18.295-8.324,20.553-16.585l-0.412-5.271c-0.617-7.942,0.15-13.857,2.054-18.429
		c-4.874-1.452-6.887-6.762-7.875-10.18c-6.64,3.13-22.725,10.195-43.027,10.555c-0.075,0.846-0.113,1.69-0.113,2.526v8.522
		C125.567,262.283,138.496,275.23,154.387,275.254z"/>
	<path d="M257.704,253.397l-0.652,8.35c2.816,6.274,8.686,13.488,20.804,13.506c15.881-0.023,28.81-12.971,28.81-28.862v-8.522
		c0-0.832-0.037-1.67-0.112-2.512h-3.822c-6.865,0-9.4-6.581-10.553-10.569c-5.86,2.763-19.084,8.584-36.067,10.161
		C257.667,240.468,258.225,246.703,257.704,253.397z"/>
	<path d="M412.232,52.764H20c-11.028,0-20,8.972-20,20v286.704c0,11.028,8.972,20,20,20h392.232c11.028,0,20-8.972,20-20V72.764
		C432.232,61.736,423.261,52.764,412.232,52.764z M49.614,91.311h133.768v28.743H49.614V91.311z M49.614,150.269h133.768v28.744
		H49.614V150.269z M322.045,329.784h-57.538l-0.036,25.545h-96.709l-0.036-25.545h-57.538l-0.052-36.858
		c0-8.441,9.03-11.618,16.286-14.171c1.596-0.562,3.403-1.198,4.877-1.838c-0.242-0.266-0.487-0.535-0.735-0.807
		c-6.26-6.866-13.352-14.644-13.399-28.389l-0.837-10.713c-1.888-24.279,10.212-28.007,28.528-33.65
		c2.682-0.826,5.454-1.681,8.426-2.665c3.844-1.274,7.621-1.92,11.226-1.92c7.662,0,14.364,2.867,19.383,8.291
		c3.565,3.853,6.081,8.817,7.466,14.556c4.204-1.805,9.041-3.301,14.366-4.941c2.957-0.911,6.016-1.853,9.294-2.939
		c4.2-1.392,8.326-2.098,12.261-2.098c6.105,0,11.647,1.678,16.323,4.888c4.802-7.024,13.617-9.748,24.725-13.171
		c2.682-0.826,5.454-1.68,8.426-2.665c3.844-1.274,7.621-1.92,11.226-1.92c7.662,0,14.365,2.867,19.384,8.291
		c6.469,6.991,9.504,17.626,8.546,29.945l-0.837,10.713c-0.048,13.745-7.14,21.523-13.399,28.389
		c-0.248,0.272-0.493,0.541-0.735,0.807c1.474,0.64,3.281,1.276,4.877,1.838c7.256,2.553,16.286,5.73,16.286,14.171L322.045,329.784
		z M382.618,179.013H248.851v-28.744h133.768V179.013z M382.618,120.055H248.851V91.311h133.768V120.055z"/>
	<path d="M243.539,251.25c-7.584,0-10.166-7.347-11.403-11.795c-7.083,3.357-25.129,11.453-47.98,11.784
		c-0.104,1.051-0.157,2.099-0.157,3.137v9.394c0,17.712,14.41,32.144,32.123,32.17c17.702-0.026,32.112-14.458,32.112-32.17v-6.537
		c-0.442-1.93-0.763-3.927-0.958-5.983H243.539z"/>
	<polygon points="216.116,334.528 240.997,308.138 191.236,308.138 	"/>
</g>
<g>
</g>
<g>
</g>
<g>
</g>
<g>
</g>
<g>
</g>
<g>
</g>
<g>
</g>
<g>
</g>
<g>
</g>
<g>
</g>
<g>
</g>
<g>
</g>
<g>
</g>
<g>
</g>
<g>
</g>
</svg>
