<?xml version="1.0" encoding="iso-8859-1"?>
<!-- Generator: Adobe Illustrator 17.1.0, SVG Export Plug-In . SVG Version: 6.00 Build 0)  -->
<!DOCTYPE svg PUBLIC "-//W3C//DTD SVG 1.1//EN" "http://www.w3.org/Graphics/SVG/1.1/DTD/svg11.dtd">
<svg version="1.1" id="Capa_1" xmlns="http://www.w3.org/2000/svg" xmlns:xlink="http://www.w3.org/1999/xlink" x="0px" y="0px"
	 viewBox="0 0 442.887 442.887" style="enable-background:new 0 0 442.887 442.887;" xml:space="preserve">
<g>
	<path d="M166.918,122.093h109.051c5.514,0,10-4.486,10-10V69.69c0-5.514-4.486-10-10-10h-7.434
		c0.865-3.617,1.336-7.385,1.336-11.263C269.871,21.724,248.146,0,221.443,0s-48.428,21.724-48.428,48.427
		c0,3.878,0.471,7.646,1.336,11.263h-7.434c-5.514,0-10,4.486-10,10v42.402C156.918,117.607,161.404,122.093,166.918,122.093z
		 M221.443,28.389c11.067,0,20.039,8.972,20.039,20.039s-8.972,20.039-20.039,20.039s-20.039-8.972-20.039-20.039
		S210.376,28.389,221.443,28.389z"/>
	<polygon points="292.158,372.651 318.014,345.227 266.302,345.227 	"/>
	<polygon points="150.729,372.651 176.585,345.227 124.873,345.227 	"/>
	<path d="M268.666,305.505l-0.381,5.278l-0.47,6.016c3.261,7.348,10.11,15.867,24.348,15.888
		c18.473-0.027,33.51-15.086,33.51-33.569v-9.762c0-1.119-0.059-2.251-0.175-3.386h-4.842c-7.87,0-10.502-7.743-11.762-12.314
		c-6.455,3.065-22.095,10.148-42.305,11.908C268.355,291.531,269.069,298.267,268.666,305.505z"/>
	<path d="M252.854,304.173c-8.647,0-11.411-8.842-12.73-13.722c-7.715,3.676-28.856,13.432-55.75,13.716
		c-0.152,1.372-0.229,2.742-0.229,4.097v10.76c0,20.569,16.734,37.328,37.304,37.358c20.56-0.03,37.294-16.789,37.294-37.358v-7.545
		c-0.542-2.352-0.931-4.788-1.147-7.305H252.854z"/>
	<path d="M167.466,273.655c-7.261,3.447-26.139,11.985-50.076,12.305c-0.117,1.138-0.176,2.273-0.176,3.396v9.762
		c0,18.483,15.037,33.542,33.52,33.569c15.076-0.022,21.446-9.79,24.06-19.452l-0.479-6.131c-0.723-9.305,0.23-16.16,2.568-21.404
		C170.82,284.329,168.59,277.736,167.466,273.655z"/>
	<path d="M383.385,82.47h-51.57c-11.028,0-20,8.972-20,20v35.468c0,5.514-4.486,10-10,10H141.072c-5.514,0-10-4.486-10-10V102.47
		c0-11.028-8.972-20-20-20h-51.57c-11.028,0-20,8.972-20,20v320.417c0,11.028,8.972,20,20,20h323.883c11.028,0,20-8.972,20-20
		V102.47C403.385,91.442,394.413,82.47,383.385,82.47z M118.029,192.7h206.829v28.743H118.029V192.7z M342.272,394.131h-65.886
		l0,4.417l-0.062,24.844H166.563l-0.064-25.143v-4.118h-65.885l-0.059-41.711c0-9.308,10.155-12.881,18.315-15.752
		c2.158-0.759,4.489-1.579,6.266-2.407c-0.429-0.475-0.867-0.955-1.313-1.444c-7.111-7.799-15.168-16.637-15.217-32.198
		l-0.961-12.29c-2.13-27.405,11.574-31.628,32.319-38.02c3.074-0.947,6.253-1.927,9.662-3.056c4.352-1.442,8.624-2.173,12.698-2.173
		c8.632,0,16.18,3.228,21.829,9.333c4.147,4.482,7.042,10.299,8.576,17.041c4.917-2.176,10.636-3.94,16.955-5.886
		c3.391-1.044,6.896-2.125,10.657-3.371c4.76-1.578,9.432-2.377,13.884-2.377c7.087,0,13.504,1.997,18.87,5.824
		c5.371-8.26,15.489-11.387,28.298-15.334c3.075-0.947,6.254-1.926,9.663-3.056c4.352-1.442,8.624-2.173,12.698-2.173
		c8.631,0,16.179,3.227,21.828,9.333c7.313,7.903,10.742,19.948,9.656,33.915l-0.961,12.291
		c-0.049,15.561-8.105,24.398-15.217,32.198c-0.445,0.489-0.884,0.969-1.313,1.444c1.776,0.828,4.107,1.648,6.266,2.407
		c8.16,2.871,18.315,6.444,18.315,15.752L342.272,394.131z"/>
	<polygon points="221.443,400.073 249.943,369.846 192.944,369.846 	"/>
</g>
<g>
</g>
<g>
</g>
<g>
</g>
<g>
</g>
<g>
</g>
<g>
</g>
<g>
</g>
<g>
</g>
<g>
</g>
<g>
</g>
<g>
</g>
<g>
</g>
<g>
</g>
<g>
</g>
<g>
</g>
</svg>
