<?xml version="1.0" encoding="iso-8859-1"?>
<!-- Generator: Adobe Illustrator 17.1.0, SVG Export Plug-In . SVG Version: 6.00 Build 0)  -->
<!DOCTYPE svg PUBLIC "-//W3C//DTD SVG 1.1//EN" "http://www.w3.org/Graphics/SVG/1.1/DTD/svg11.dtd">
<svg version="1.1" id="Capa_1" xmlns="http://www.w3.org/2000/svg" xmlns:xlink="http://www.w3.org/1999/xlink" x="0px" y="0px"
	 viewBox="0 0 442.887 442.887" style="enable-background:new 0 0 442.887 442.887;" xml:space="preserve">
<g>
	<path d="M166.918,122.093h109.051c5.514,0,10-4.486,10-10V69.69c0-5.514-4.486-10-10-10h-7.434
		c0.865-3.617,1.336-7.385,1.336-11.263C269.871,21.725,248.146,0,221.443,0s-48.427,21.725-48.427,48.428
		c0,3.878,0.471,7.646,1.336,11.263h-7.434c-5.514,0-10,4.486-10,10v42.402C156.918,117.606,161.404,122.093,166.918,122.093z
		 M221.443,28.389c11.067,0,20.039,8.971,20.039,20.039s-8.972,20.039-20.039,20.039s-20.039-8.972-20.039-20.039
		S210.376,28.389,221.443,28.389z"/>
	<path d="M210.641,296.374c-1.865,0-2.604-1.194-6.707-7.824c-1.282-2.072-3.194-5.162-4.492-6.98
		c-1.29,1.768-3.182,4.747-4.453,6.748c-4.388,6.91-5.169,8.057-7.025,8.057h-7.099c-0.256,1.863-0.386,3.73-0.386,5.573v11.446
		c0,22.588,18.376,40.965,40.964,40.965s40.964-18.377,40.964-40.965v-11.446c0-1.843-0.13-3.71-0.386-5.573H210.641z"/>
	<path d="M373.385,82.471h-41.57c-11.028,0-20,8.972-20,20v35.468c0,5.514-4.486,10-10,10H141.072c-5.514,0-10-4.486-10-10v-35.468
		c0-11.028-8.972-20-20-20h-41.57c-11.028,0-20,8.972-20,20v320.416c0,11.028,8.972,20,20,20h303.883c11.028,0,20-8.972,20-20
		V102.471C393.385,91.442,384.413,82.471,373.385,82.471z M284.1,319.547c0,16.01-4.838,30.073-14.017,40.818
		c5.505,7.926,8.517,17.612,8.517,27.506l-0.004,11.43l-0.062,23.26l-114.315-0.025l-0.065-35.255
		c0-12.717,2.345-21.849,7.353-28.498c-8.33-10.652-12.721-24.169-12.721-39.235v-19.122c0-34.549,28.108-62.657,62.657-62.657
		s62.657,28.108,62.657,62.657V319.547z M307.443,211.443h-172V182.7h172V211.443z"/>
	<polygon points="221.443,398.091 248.057,369.863 194.829,369.863 	"/>
</g>
<g>
</g>
<g>
</g>
<g>
</g>
<g>
</g>
<g>
</g>
<g>
</g>
<g>
</g>
<g>
</g>
<g>
</g>
<g>
</g>
<g>
</g>
<g>
</g>
<g>
</g>
<g>
</g>
<g>
</g>
</svg>
