<?xml version="1.0" encoding="iso-8859-1"?>
<!-- Generator: Adobe Illustrator 17.1.0, SVG Export Plug-In . SVG Version: 6.00 Build 0)  -->
<!DOCTYPE svg PUBLIC "-//W3C//DTD SVG 1.1//EN" "http://www.w3.org/Graphics/SVG/1.1/DTD/svg11.dtd">
<svg version="1.1" id="Capa_1" xmlns="http://www.w3.org/2000/svg" xmlns:xlink="http://www.w3.org/1999/xlink" x="0px" y="0px"
	 viewBox="0 0 412.027 412.027" style="enable-background:new 0 0 412.027 412.027;" xml:space="preserve">
<g>
	<path d="M391.494,222.158H147.339c-11.028,0-20,8.972-20,20v149.869c0,11.028,8.972,20,20,20h244.155c11.028,0,20-8.972,20-20
		V242.158C411.494,231.13,402.522,222.158,391.494,222.158z M172.533,271.742H296.3v28.743H172.533V271.742z M365.288,362.443
		H172.533V333.7h192.755V362.443z"/>
	<path d="M142.615,107.391c17.702-0.026,32.112-14.458,32.112-32.17v-9.395c0-1.035-0.052-2.08-0.155-3.126h-4.539
		c-7.584,0-10.166-7.347-11.403-11.795c-7.084,3.358-25.129,11.452-47.98,11.784c-0.104,1.051-0.157,2.1-0.157,3.137v9.395
		C110.492,92.933,124.902,107.364,142.615,107.391z"/>
	<path d="M284.688,169.869V20c0-11.028-8.972-20-20-20H20.533c-11.028,0-20,8.972-20,20v149.869c0,11.028,8.972,20,20,20h244.154
		C275.716,189.869,284.688,180.897,284.688,169.869z M190.965,166.779H94.256l-0.057-40.269c0-9.05,9.82-12.505,17.712-15.282
		c2.01-0.707,4.176-1.469,5.855-2.235c-0.375-0.414-0.756-0.832-1.144-1.257c-6.858-7.522-14.628-16.046-14.677-31.065
		l-0.924-11.822c-2.058-26.477,11.171-30.552,31.194-36.721c2.957-0.911,6.015-1.854,9.293-2.939
		c4.2-1.393,8.326-2.098,12.261-2.098c8.343,0,15.64,3.12,21.102,9.022c7.062,7.632,10.374,19.258,9.326,32.735l-0.924,11.822
		c-0.049,15.02-7.818,23.543-14.677,31.065c-0.388,0.425-0.769,0.843-1.144,1.257c1.68,0.767,3.846,1.528,5.855,2.235
		c7.892,2.777,17.712,6.232,17.712,15.282L190.965,166.779z"/>
	<polygon points="142.61,145.978 167.491,119.589 117.73,119.589 	"/>
</g>
<g>
</g>
<g>
</g>
<g>
</g>
<g>
</g>
<g>
</g>
<g>
</g>
<g>
</g>
<g>
</g>
<g>
</g>
<g>
</g>
<g>
</g>
<g>
</g>
<g>
</g>
<g>
</g>
<g>
</g>
</svg>
